<?xml version="1.0" encoding="UTF-8" standalone="no"?><svg xmlns="http://www.w3.org/2000/svg" xmlns:xlink="http://www.w3.org/1999/xlink" contentScriptType="application/ecmascript" contentStyleType="text/css" height="1066px" preserveAspectRatio="none" style="width:900px;height:1066px;" version="1.1" viewBox="0 0 900 1066" width="900px" zoomAndPan="magnify"><defs><filter height="300%" id="fogwu41z76kxi" width="300%" x="-1" y="-1"><feGaussianBlur result="blurOut" stdDeviation="4.0"/><feColorMatrix in="blurOut" result="blurOut2" type="matrix" values="0 0 0 0 0 0 0 0 0 0 0 0 0 0 0 0 0 0 .4 0"/><feOffset dx="8.0" dy="8.0" in="blurOut2" result="blurOut3"/><feBlend in="SourceGraphic" in2="blurOut3" mode="normal"/></filter></defs><g><!--MD5=[20d5f9acf9ebd0b60db2a69e927bdaf0]
cluster Edge Tier--><rect fill="#FFFFFF" filter="url(#fogwu41z76kxi)" height="580" style="stroke: #808080; stroke-width: 3.0;" width="700" x="44" y="464"/><path d="M200,466 L200,482.9766 L180,502.9766 L44,502.9766 " fill="none" style="stroke: #808080; stroke-width: 3.0;"/><text fill="#808080" font-family="sans-serif" font-size="28" font-weight="bold" lengthAdjust="spacingAndGlyphs" textLength="136" x="50" y="493.0703">Edge Tier</text><!--MD5=[370c2c8d7fbcefa4160650c06cb1c562]
cluster Device A--><rect fill="#FFFFFF" filter="url(#fogwu41z76kxi)" height="174" style="stroke: #808080; stroke-width: 3.0;" width="248" x="92" y="550"/><path d="M236,552 L236,568.9766 L216,588.9766 L92,588.9766 " fill="none" style="stroke: #808080; stroke-width: 3.0;"/><text fill="#808080" font-family="sans-serif" font-size="28" font-weight="bold" lengthAdjust="spacingAndGlyphs" textLength="124" x="98" y="579.0703">Device A</text><!--MD5=[f80f47be1b9050186404a62a234235d6]
cluster Gateway Device--><rect fill="#FFFFFF" filter="url(#fogwu41z76kxi)" height="174" style="stroke: #808080; stroke-width: 3.0;" width="308" x="388" y="550"/><path d="M632,552 L632,568.9766 L612,588.9766 L388,588.9766 " fill="none" style="stroke: #808080; stroke-width: 3.0;"/><text fill="#808080" font-family="sans-serif" font-size="28" font-weight="bold" lengthAdjust="spacingAndGlyphs" textLength="224" x="394" y="579.0703">Gateway Device</text><!--MD5=[5595512e22b84f0e8fd9dbe276a54fae]
cluster Device B--><rect fill="#FFFFFF" filter="url(#fogwu41z76kxi)" height="174" style="stroke: #808080; stroke-width: 3.0;" width="248" x="418" y="822"/><path d="M560,824 L560,840.9766 L540,860.9766 L418,860.9766 " fill="none" style="stroke: #808080; stroke-width: 3.0;"/><text fill="#808080" font-family="sans-serif" font-size="28" font-weight="bold" lengthAdjust="spacingAndGlyphs" textLength="122" x="424" y="851.0703">Device B</text><!--MD5=[7bed505170314078f5c2ddbcc996404c]
cluster Platform Tier--><rect fill="#FFFFFF" filter="url(#fogwu41z76kxi)" height="318" style="stroke: #808080; stroke-width: 3.0;" width="832" x="46" y="48"/><path d="M260,50 L260,66.9766 L240,86.9766 L46,86.9766 " fill="none" style="stroke: #808080; stroke-width: 3.0;"/><text fill="#808080" font-family="sans-serif" font-size="28" font-weight="bold" lengthAdjust="spacingAndGlyphs" textLength="194" x="52" y="77.0703">Platform Tier</text><!--MD5=[b7410abfeda6d42801c4da5e81ea58cb]
cluster ForgeRock Identity Platform--><polygon fill="#FFFFFF" filter="url(#fogwu41z76kxi)" points="94,154,114,134,830,134,830,298,810,318,94,318,94,154" style="stroke: #062B8C; stroke-width: 3.0;"/><line style="stroke: #062B8C; stroke-width: 3.0;" x1="810" x2="828" y1="154" y2="136"/><line style="stroke: #062B8C; stroke-width: 3.0;" x1="94" x2="810" y1="154" y2="154"/><line style="stroke: #062B8C; stroke-width: 3.0;" x1="810" x2="810" y1="154" y2="318"/><text fill="#062B8C" font-family="sans-serif" font-size="28" font-weight="bold" lengthAdjust="spacingAndGlyphs" textLength="408" x="250" y="187.0703">ForgeRock Identity Platform</text><!--MD5=[1c5ba14a582780a0070707c3598231a5]
entity ac--><rect fill="#FC6700" filter="url(#fogwu41z76kxi)" height="72.9766" style="stroke: #062B8C; stroke-width: 3.0;" width="182" x="125" y="620"/><rect fill="#FC6700" height="10" style="stroke: #062B8C; stroke-width: 3.0;" width="20" x="115" y="630"/><rect fill="#FC6700" height="10" style="stroke: #062B8C; stroke-width: 3.0;" width="20" x="115" y="672.9766"/><text fill="#062B8C" font-family="sans-serif" font-size="28" lengthAdjust="spacingAndGlyphs" textLength="142" x="145" y="667.0703">Thing SDK</text><!--MD5=[38624cccbb9588035ee23989c4255e23]
entity gt--><rect fill="#FC6700" filter="url(#fogwu41z76kxi)" height="72.9766" style="stroke: #062B8C; stroke-width: 3.0;" width="242" x="421" y="620"/><rect fill="#FC6700" height="10" style="stroke: #062B8C; stroke-width: 3.0;" width="20" x="411" y="630"/><rect fill="#FC6700" height="10" style="stroke: #062B8C; stroke-width: 3.0;" width="20" x="411" y="672.9766"/><text fill="#062B8C" font-family="sans-serif" font-size="28" lengthAdjust="spacingAndGlyphs" textLength="202" x="441" y="667.0703">Thing Gateway</text><!--MD5=[64aad12408a58b9ce9be54cd8960e890]
entity gc--><rect fill="#FC6700" filter="url(#fogwu41z76kxi)" height="72.9766" style="stroke: #062B8C; stroke-width: 3.0;" width="182" x="451" y="892"/><rect fill="#FC6700" height="10" style="stroke: #062B8C; stroke-width: 3.0;" width="20" x="441" y="902"/><rect fill="#FC6700" height="10" style="stroke: #062B8C; stroke-width: 3.0;" width="20" x="441" y="944.9766"/><text fill="#062B8C" font-family="sans-serif" font-size="28" lengthAdjust="spacingAndGlyphs" textLength="142" x="471" y="939.0703">Thing SDK</text><!--MD5=[0978f1d1852e1818626a53678cd48ddd]
entity am--><rect fill="#FC6700" filter="url(#fogwu41z76kxi)" height="72.9766" style="stroke: #062B8C; stroke-width: 3.0;" width="318" x="127" y="214"/><rect fill="#FC6700" height="10" style="stroke: #062B8C; stroke-width: 3.0;" width="20" x="117" y="224"/><rect fill="#FC6700" height="10" style="stroke: #062B8C; stroke-width: 3.0;" width="20" x="117" y="266.9766"/><text fill="#062B8C" font-family="sans-serif" font-size="28" lengthAdjust="spacingAndGlyphs" textLength="278" x="147" y="261.0703">Access Management</text><!--MD5=[727c1040af9be188ab17d19c49f9ac10]
entity ds--><rect fill="#FC6700" filter="url(#fogwu41z76kxi)" height="72.9766" style="stroke: #062B8C; stroke-width: 3.0;" width="282" x="515" y="214"/><rect fill="#FC6700" height="10" style="stroke: #062B8C; stroke-width: 3.0;" width="20" x="505" y="224"/><rect fill="#FC6700" height="10" style="stroke: #062B8C; stroke-width: 3.0;" width="20" x="505" y="266.9766"/><text fill="#062B8C" font-family="sans-serif" font-size="28" lengthAdjust="spacingAndGlyphs" textLength="242" x="535" y="261.0703">Directory Services</text><!--MD5=[9476a028331a76b9b345ccfd0fe1f3d7]
reverse link am to ac--><path d="M278.22,296.64 C264.12,377.64 234.6,547.2 221.96,619.82 " fill="none" id="am&lt;-ac" style="stroke: #062B8C; stroke-width: 2.0;"/><polygon fill="#062B8C" points="280.04,286.28,269.0742,302.6431,278.3266,296.1321,284.8376,305.3845,280.04,286.28" style="stroke: #062B8C; stroke-width: 2.0;"/><text fill="#062B8C" font-family="sans-serif" font-size="26" lengthAdjust="spacingAndGlyphs" textLength="124" x="262" y="425.1367">HTTP/TLS</text><!--MD5=[d56fd36dfdef157de39ed7885243693f]
reverse link am to gt--><path d="M323.18,293.72 C347.58,322.08 379.42,361.04 404,398 C454.34,473.66 502.12,569.48 526.04,619.72 " fill="none" id="am&lt;-gt" style="stroke: #062B8C; stroke-width: 2.0;"/><polygon fill="#062B8C" points="316.52,286,322.2714,304.8394,323.0726,293.5541,334.3579,294.3552,316.52,286" style="stroke: #062B8C; stroke-width: 2.0;"/><text fill="#062B8C" font-family="sans-serif" font-size="26" lengthAdjust="spacingAndGlyphs" textLength="124" x="426" y="425.1367">HTTP/TLS</text><!--MD5=[620dc3d5377f046bf9a6dec03f947c61]
reverse link gt to gc--><path d="M542,702.64 C542,755.82 542,843.48 542,891.64 " fill="none" id="gt&lt;-gc" style="stroke: #062B8C; stroke-width: 2.0;"/><polygon fill="#062B8C" points="542,692.48,534,710.48,542,702.48,550,710.48,542,692.48" style="stroke: #062B8C; stroke-width: 2.0;"/><text fill="#062B8C" font-family="sans-serif" font-size="26" lengthAdjust="spacingAndGlyphs" textLength="148" x="544" y="783.1367">COAP/DTLS</text><!--MD5=[aae15c2a41a82e1cf01327606c5f9ae5]
link am to ds--><path d="M445.7,250 C465.3,250 484.88,250 504.46,250 " fill="none" id="am-&gt;ds" style="stroke: #062B8C; stroke-width: 2.0;"/><polygon fill="#062B8C" points="514.7,250,496.7,242,504.7,250,496.7,258,514.7,250" style="stroke: #062B8C; stroke-width: 2.0;"/><!--MD5=[bb330116bcaab3ced44cad4f343b8b0c]
@startuml

skinparam component {
  FontColor #062b8c
  BackgroundColor #fc6700
  BorderColor #062b8c
  ArrowColor #062b8c
  ArrowFontColor #062b8c
}
skinparam node {
  BorderColor #062b8c
  FontColor #062b8c
}
skinparam frame {
  BorderColor Grey
  FontColor Grey
}

frame "Edge Tier" {
    frame "Device A" {
        [Thing SDK] as ac
    }
    frame "Gateway Device" {
        [Thing Gateway] as gt
    }
    frame "Device B" {
        [Thing SDK] as gc
    }
}
frame "Platform Tier" {
    node "ForgeRock Identity Platform" {
        [Access Management] as am
        [Directory Services] as ds
    }
}
ac -up-> am : HTTP/TLS
gt -up-> am : HTTP/TLS
gc -up-> gt : COAP/DTLS
am -right-> ds
@enduml

PlantUML version 1.2020.03beta6(Unknown compile time)
(GPL source distribution)
Java Runtime: OpenJDK Runtime Environment
JVM: OpenJDK 64-Bit Server VM
Java Version: 11.0.5+10-b520.38
Operating System: Mac OS X
Default Encoding: UTF-8
Language: en
Country: GB
--></g></svg>